<svg width="31" height="30" viewBox="0 0 31 30" fill="none" xmlns="http://www.w3.org/2000/svg">
<path d="M15.25 2.55C8.375 2.55 2.75 8.1625 2.75 15.075C2.75 21.325 7.325 26.5125 13.3 27.45V18.7H10.125V15.075H13.3V12.3125C13.3 9.175 15.1625 7.45 18.025 7.45C19.3875 7.45 20.8125 7.6875 20.8125 7.6875V10.775H19.2375C17.6875 10.775 17.2 11.7375 17.2 12.725V15.075H20.675L20.1125 18.7H17.2V27.45C20.1456 26.9848 22.8278 25.4819 24.7624 23.2126C26.6971 20.9433 27.7567 18.0571 27.75 15.075C27.75 8.1625 22.125 2.55 15.25 2.55V2.55Z" fill="white"/>
</svg>
