<svg xmlns="http://www.w3.org/2000/svg" version="1.1" xmlns:xlink="http://www.w3.org/1999/xlink" xmlns:svgjs="http://svgjs.com/svgjs" width="1920" height="1080" preserveAspectRatio="none" viewBox="0 0 1920 1080"><g mask="url(&quot;#SvgjsMask1025&quot;)" fill="none"><path d="M61.71 -4.21L126.66 33.29L126.66 108.29L61.71 145.79L-3.24 108.29L-3.24 33.29zM61.71 220.79L126.66 258.29L126.66 333.29L61.71 370.79L-3.24 333.29L-3.24 258.29zM61.71 445.79L126.66 483.29L126.66 558.29L61.71 595.79L-3.24 558.29L-3.24 483.29zM126.66 558.29L191.62 595.79L191.62 670.79L126.66 708.29L61.71 670.79L61.71 595.79zM126.66 783.29L191.62 820.79L191.62 895.79L126.66 933.29L61.71 895.79L61.71 820.79zM191.62 -4.21L256.57 33.29L256.57 108.29L191.62 145.79L126.66 108.29L126.66 33.29zM191.62 220.79L256.57 258.29L256.57 333.29L191.62 370.79L126.66 333.29L126.66 258.29zM191.62 445.79L256.57 483.29L256.57 558.29L191.62 595.79L126.66 558.29L126.66 483.29zM256.57 558.29L321.52 595.79L321.52 670.79L256.57 708.29L191.62 670.79L191.62 595.79zM256.57 783.29L321.52 820.79L321.52 895.79L256.57 933.29L191.62 895.79L191.62 820.79zM191.62 1120.79L256.57 1158.29L256.57 1233.29L191.62 1270.79L126.66 1233.29L126.66 1158.29zM386.48 108.29L451.43 145.79L451.43 220.79L386.48 258.29L321.52 220.79L321.52 145.79zM321.52 220.79L386.48 258.29L386.48 333.29L321.52 370.79L256.57 333.29L256.57 258.29zM386.48 333.29L451.43 370.79L451.43 445.79L386.48 483.29L321.52 445.79L321.52 370.79zM321.52 445.79L386.48 483.29L386.48 558.29L321.52 595.79L256.57 558.29L256.57 483.29zM321.52 895.79L386.48 933.29L386.48 1008.29L321.52 1045.79L256.57 1008.29L256.57 933.29zM451.43 -4.21L516.39 33.29L516.39 108.29L451.43 145.79L386.48 108.29L386.48 33.29zM516.39 108.29L581.34 145.79L581.34 220.79L516.39 258.29L451.43 220.79L451.43 145.79zM451.43 220.79L516.39 258.29L516.39 333.29L451.43 370.79L386.48 333.29L386.48 258.29zM451.43 445.79L516.39 483.29L516.39 558.29L451.43 595.79L386.48 558.29L386.48 483.29zM516.39 558.29L581.34 595.79L581.34 670.79L516.39 708.29L451.43 670.79L451.43 595.79zM451.43 895.79L516.39 933.29L516.39 1008.29L451.43 1045.79L386.48 1008.29L386.48 933.29zM581.34 -4.21L646.29 33.29L646.29 108.29L581.34 145.79L516.39 108.29L516.39 33.29zM646.29 333.29L711.25 370.79L711.25 445.79L646.29 483.29L581.34 445.79L581.34 370.79zM646.29 558.29L711.25 595.79L711.25 670.79L646.29 708.29L581.34 670.79L581.34 595.79zM581.34 895.79L646.29 933.29L646.29 1008.29L581.34 1045.79L516.39 1008.29L516.39 933.29zM646.29 1008.29L711.25 1045.79L711.25 1120.79L646.29 1158.29L581.34 1120.79L581.34 1045.79zM581.34 1120.79L646.29 1158.29L646.29 1233.29L581.34 1270.79L516.39 1233.29L516.39 1158.29zM776.2 108.29L841.16 145.79L841.16 220.79L776.2 258.29L711.25 220.79L711.25 145.79zM711.25 220.79L776.2 258.29L776.2 333.29L711.25 370.79L646.29 333.29L646.29 258.29zM711.25 670.79L776.2 708.29L776.2 783.29L711.25 820.79L646.29 783.29L646.29 708.29zM711.25 895.79L776.2 933.29L776.2 1008.29L711.25 1045.79L646.29 1008.29L646.29 933.29zM711.25 1120.79L776.2 1158.29L776.2 1233.29L711.25 1270.79L646.29 1233.29L646.29 1158.29zM841.15 220.79L906.11 258.29L906.11 333.29L841.15 370.79L776.2 333.29L776.2 258.29zM906.11 558.29L971.06 595.79L971.06 670.79L906.11 708.29L841.15 670.79L841.15 595.79zM841.15 670.79L906.11 708.29L906.11 783.29L841.15 820.79L776.2 783.29L776.2 708.29zM906.11 783.29L971.06 820.79L971.06 895.79L906.11 933.29L841.15 895.79L841.15 820.79zM906.11 1008.29L971.06 1045.79L971.06 1120.79L906.11 1158.29L841.15 1120.79L841.15 1045.79zM971.06 -4.21L1036.02 33.29L1036.02 108.29L971.06 145.79L906.11 108.29L906.11 33.29zM971.06 220.79L1036.02 258.29L1036.02 333.29L971.06 370.79L906.11 333.29L906.11 258.29zM1036.02 333.29L1100.97 370.79L1100.97 445.79L1036.02 483.29L971.06 445.79L971.06 370.79zM971.06 670.79L1036.02 708.29L1036.02 783.29L971.06 820.79L906.11 783.29L906.11 708.29zM971.06 1120.79L1036.02 1158.29L1036.02 1233.29L971.06 1270.79L906.11 1233.29L906.11 1158.29zM1165.92 108.29L1230.88 145.79L1230.88 220.79L1165.92 258.29L1100.97 220.79L1100.97 145.79zM1100.97 220.79L1165.92 258.29L1165.92 333.29L1100.97 370.79L1036.02 333.29L1036.02 258.29zM1165.92 333.29L1230.88 370.79L1230.88 445.79L1165.92 483.29L1100.97 445.79L1100.97 370.79zM1165.92 558.29L1230.88 595.79L1230.88 670.79L1165.92 708.29L1100.97 670.79L1100.97 595.79zM1100.97 670.79L1165.92 708.29L1165.92 783.29L1100.97 820.79L1036.02 783.29L1036.02 708.29zM1165.92 783.29L1230.88 820.79L1230.88 895.79L1165.92 933.29L1100.97 895.79L1100.97 820.79zM1295.83 108.29L1360.78 145.79L1360.78 220.79L1295.83 258.29L1230.88 220.79L1230.88 145.79zM1230.88 220.79L1295.83 258.29L1295.83 333.29L1230.88 370.79L1165.92 333.29L1165.92 258.29zM1230.88 445.79L1295.83 483.29L1295.83 558.29L1230.88 595.79L1165.92 558.29L1165.92 483.29zM1230.88 895.79L1295.83 933.29L1295.83 1008.29L1230.88 1045.79L1165.92 1008.29L1165.92 933.29zM1230.88 1120.79L1295.83 1158.29L1295.83 1233.29L1230.88 1270.79L1165.92 1233.29L1165.92 1158.29zM1360.79 220.79L1425.74 258.29L1425.74 333.29L1360.79 370.79L1295.83 333.29L1295.83 258.29zM1360.79 445.79L1425.74 483.29L1425.74 558.29L1360.79 595.79L1295.83 558.29L1295.83 483.29zM1425.74 558.29L1490.69 595.79L1490.69 670.79L1425.74 708.29L1360.79 670.79L1360.79 595.79zM1360.79 670.79L1425.74 708.29L1425.74 783.29L1360.79 820.79L1295.83 783.29L1295.83 708.29zM1490.69 -4.21L1555.65 33.29L1555.65 108.29L1490.69 145.79L1425.74 108.29L1425.74 33.29zM1490.69 220.79L1555.65 258.29L1555.65 333.29L1490.69 370.79L1425.74 333.29L1425.74 258.29zM1490.69 670.79L1555.65 708.29L1555.65 783.29L1490.69 820.79L1425.74 783.29L1425.74 708.29zM1555.65 1008.29L1620.6 1045.79L1620.6 1120.79L1555.65 1158.29L1490.69 1120.79L1490.69 1045.79zM1620.6 445.79L1685.55 483.29L1685.55 558.29L1620.6 595.79L1555.65 558.29L1555.65 483.29zM1685.55 558.29L1750.51 595.79L1750.51 670.79L1685.55 708.29L1620.6 670.79L1620.6 595.79zM1620.6 670.79L1685.55 708.29L1685.55 783.29L1620.6 820.79L1555.65 783.29L1555.65 708.29zM1685.55 1008.29L1750.51 1045.79L1750.51 1120.79L1685.55 1158.29L1620.6 1120.79L1620.6 1045.79zM1620.6 1120.79L1685.55 1158.29L1685.55 1233.29L1620.6 1270.79L1555.65 1233.29L1555.65 1158.29zM1750.51 -4.21L1815.46 33.29L1815.46 108.29L1750.51 145.79L1685.55 108.29L1685.55 33.29zM1815.46 108.29L1880.41 145.79L1880.41 220.79L1815.46 258.29L1750.51 220.79L1750.51 145.79zM1815.46 333.29L1880.41 370.79L1880.41 445.79L1815.46 483.29L1750.51 445.79L1750.51 370.79zM1750.51 445.79L1815.46 483.29L1815.46 558.29L1750.51 595.79L1685.55 558.29L1685.55 483.29zM1815.46 558.29L1880.41 595.79L1880.41 670.79L1815.46 708.29L1750.51 670.79L1750.51 595.79zM1750.51 670.79L1815.46 708.29L1815.46 783.29L1750.51 820.79L1685.55 783.29L1685.55 708.29zM1945.37 558.29L2010.32 595.79L2010.32 670.79L1945.37 708.29L1880.41 670.79L1880.41 595.79zM1945.37 1008.29L2010.32 1045.79L2010.32 1120.79L1945.37 1158.29L1880.41 1120.79L1880.41 1045.79zM1880.41 1120.79L1945.37 1158.29L1945.37 1233.29L1880.41 1270.79L1815.46 1233.29L1815.46 1158.29z" stroke="rgba(0, 0, 0, 0)" stroke-width="2"></path><path d="M54.21 -4.21 a7.5 7.5 0 1 0 15 0 a7.5 7.5 0 1 0 -15 0zM119.16 33.29 a7.5 7.5 0 1 0 15 0 a7.5 7.5 0 1 0 -15 0zM119.16 108.29 a7.5 7.5 0 1 0 15 0 a7.5 7.5 0 1 0 -15 0zM54.21 145.79 a7.5 7.5 0 1 0 15 0 a7.5 7.5 0 1 0 -15 0zM-10.74 108.29 a7.5 7.5 0 1 0 15 0 a7.5 7.5 0 1 0 -15 0zM-10.74 33.29 a7.5 7.5 0 1 0 15 0 a7.5 7.5 0 1 0 -15 0zM54.21 220.79 a7.5 7.5 0 1 0 15 0 a7.5 7.5 0 1 0 -15 0zM119.16 258.29 a7.5 7.5 0 1 0 15 0 a7.5 7.5 0 1 0 -15 0zM119.16 333.29 a7.5 7.5 0 1 0 15 0 a7.5 7.5 0 1 0 -15 0zM54.21 370.79 a7.5 7.5 0 1 0 15 0 a7.5 7.5 0 1 0 -15 0zM-10.74 333.29 a7.5 7.5 0 1 0 15 0 a7.5 7.5 0 1 0 -15 0zM-10.74 258.29 a7.5 7.5 0 1 0 15 0 a7.5 7.5 0 1 0 -15 0zM54.21 445.79 a7.5 7.5 0 1 0 15 0 a7.5 7.5 0 1 0 -15 0zM119.16 483.29 a7.5 7.5 0 1 0 15 0 a7.5 7.5 0 1 0 -15 0zM119.16 558.29 a7.5 7.5 0 1 0 15 0 a7.5 7.5 0 1 0 -15 0zM54.21 595.79 a7.5 7.5 0 1 0 15 0 a7.5 7.5 0 1 0 -15 0zM-10.74 558.29 a7.5 7.5 0 1 0 15 0 a7.5 7.5 0 1 0 -15 0zM-10.74 483.29 a7.5 7.5 0 1 0 15 0 a7.5 7.5 0 1 0 -15 0zM184.12 595.79 a7.5 7.5 0 1 0 15 0 a7.5 7.5 0 1 0 -15 0zM184.12 670.79 a7.5 7.5 0 1 0 15 0 a7.5 7.5 0 1 0 -15 0zM119.16 708.29 a7.5 7.5 0 1 0 15 0 a7.5 7.5 0 1 0 -15 0zM54.21 670.79 a7.5 7.5 0 1 0 15 0 a7.5 7.5 0 1 0 -15 0zM119.16 783.29 a7.5 7.5 0 1 0 15 0 a7.5 7.5 0 1 0 -15 0zM184.12 820.79 a7.5 7.5 0 1 0 15 0 a7.5 7.5 0 1 0 -15 0zM184.12 895.79 a7.5 7.5 0 1 0 15 0 a7.5 7.5 0 1 0 -15 0zM119.16 933.29 a7.5 7.5 0 1 0 15 0 a7.5 7.5 0 1 0 -15 0zM54.21 895.79 a7.5 7.5 0 1 0 15 0 a7.5 7.5 0 1 0 -15 0zM54.21 820.79 a7.5 7.5 0 1 0 15 0 a7.5 7.5 0 1 0 -15 0zM184.12 -4.21 a7.5 7.5 0 1 0 15 0 a7.5 7.5 0 1 0 -15 0zM249.07 33.29 a7.5 7.5 0 1 0 15 0 a7.5 7.5 0 1 0 -15 0zM249.07 108.29 a7.5 7.5 0 1 0 15 0 a7.5 7.5 0 1 0 -15 0zM184.12 145.79 a7.5 7.5 0 1 0 15 0 a7.5 7.5 0 1 0 -15 0zM184.12 220.79 a7.5 7.5 0 1 0 15 0 a7.5 7.5 0 1 0 -15 0zM249.07 258.29 a7.5 7.5 0 1 0 15 0 a7.5 7.5 0 1 0 -15 0zM249.07 333.29 a7.5 7.5 0 1 0 15 0 a7.5 7.5 0 1 0 -15 0zM184.12 370.79 a7.5 7.5 0 1 0 15 0 a7.5 7.5 0 1 0 -15 0zM184.12 445.79 a7.5 7.5 0 1 0 15 0 a7.5 7.5 0 1 0 -15 0zM249.07 483.29 a7.5 7.5 0 1 0 15 0 a7.5 7.5 0 1 0 -15 0zM249.07 558.29 a7.5 7.5 0 1 0 15 0 a7.5 7.5 0 1 0 -15 0zM314.02 595.79 a7.5 7.5 0 1 0 15 0 a7.5 7.5 0 1 0 -15 0zM314.02 670.79 a7.5 7.5 0 1 0 15 0 a7.5 7.5 0 1 0 -15 0zM249.07 708.29 a7.5 7.5 0 1 0 15 0 a7.5 7.5 0 1 0 -15 0zM249.07 783.29 a7.5 7.5 0 1 0 15 0 a7.5 7.5 0 1 0 -15 0zM314.02 820.79 a7.5 7.5 0 1 0 15 0 a7.5 7.5 0 1 0 -15 0zM314.02 895.79 a7.5 7.5 0 1 0 15 0 a7.5 7.5 0 1 0 -15 0zM249.07 933.29 a7.5 7.5 0 1 0 15 0 a7.5 7.5 0 1 0 -15 0zM184.12 1120.79 a7.5 7.5 0 1 0 15 0 a7.5 7.5 0 1 0 -15 0zM249.07 1158.29 a7.5 7.5 0 1 0 15 0 a7.5 7.5 0 1 0 -15 0zM249.07 1233.29 a7.5 7.5 0 1 0 15 0 a7.5 7.5 0 1 0 -15 0zM184.12 1270.79 a7.5 7.5 0 1 0 15 0 a7.5 7.5 0 1 0 -15 0zM119.16 1233.29 a7.5 7.5 0 1 0 15 0 a7.5 7.5 0 1 0 -15 0zM119.16 1158.29 a7.5 7.5 0 1 0 15 0 a7.5 7.5 0 1 0 -15 0zM378.98 108.29 a7.5 7.5 0 1 0 15 0 a7.5 7.5 0 1 0 -15 0zM443.93 145.79 a7.5 7.5 0 1 0 15 0 a7.5 7.5 0 1 0 -15 0zM443.93 220.79 a7.5 7.5 0 1 0 15 0 a7.5 7.5 0 1 0 -15 0zM378.98 258.29 a7.5 7.5 0 1 0 15 0 a7.5 7.5 0 1 0 -15 0zM314.02 220.79 a7.5 7.5 0 1 0 15 0 a7.5 7.5 0 1 0 -15 0zM314.02 145.79 a7.5 7.5 0 1 0 15 0 a7.5 7.5 0 1 0 -15 0zM378.98 333.29 a7.5 7.5 0 1 0 15 0 a7.5 7.5 0 1 0 -15 0zM314.02 370.79 a7.5 7.5 0 1 0 15 0 a7.5 7.5 0 1 0 -15 0zM443.93 370.79 a7.5 7.5 0 1 0 15 0 a7.5 7.5 0 1 0 -15 0zM443.93 445.79 a7.5 7.5 0 1 0 15 0 a7.5 7.5 0 1 0 -15 0zM378.98 483.29 a7.5 7.5 0 1 0 15 0 a7.5 7.5 0 1 0 -15 0zM314.02 445.79 a7.5 7.5 0 1 0 15 0 a7.5 7.5 0 1 0 -15 0zM378.98 558.29 a7.5 7.5 0 1 0 15 0 a7.5 7.5 0 1 0 -15 0zM378.98 933.29 a7.5 7.5 0 1 0 15 0 a7.5 7.5 0 1 0 -15 0zM378.98 1008.29 a7.5 7.5 0 1 0 15 0 a7.5 7.5 0 1 0 -15 0zM314.02 1045.79 a7.5 7.5 0 1 0 15 0 a7.5 7.5 0 1 0 -15 0zM249.07 1008.29 a7.5 7.5 0 1 0 15 0 a7.5 7.5 0 1 0 -15 0zM443.93 -4.21 a7.5 7.5 0 1 0 15 0 a7.5 7.5 0 1 0 -15 0zM508.89 33.29 a7.5 7.5 0 1 0 15 0 a7.5 7.5 0 1 0 -15 0zM508.89 108.29 a7.5 7.5 0 1 0 15 0 a7.5 7.5 0 1 0 -15 0zM378.98 33.29 a7.5 7.5 0 1 0 15 0 a7.5 7.5 0 1 0 -15 0zM573.84 145.79 a7.5 7.5 0 1 0 15 0 a7.5 7.5 0 1 0 -15 0zM573.84 220.79 a7.5 7.5 0 1 0 15 0 a7.5 7.5 0 1 0 -15 0zM508.89 258.29 a7.5 7.5 0 1 0 15 0 a7.5 7.5 0 1 0 -15 0zM508.89 333.29 a7.5 7.5 0 1 0 15 0 a7.5 7.5 0 1 0 -15 0zM508.89 483.29 a7.5 7.5 0 1 0 15 0 a7.5 7.5 0 1 0 -15 0zM508.89 558.29 a7.5 7.5 0 1 0 15 0 a7.5 7.5 0 1 0 -15 0zM443.93 595.79 a7.5 7.5 0 1 0 15 0 a7.5 7.5 0 1 0 -15 0zM573.84 595.79 a7.5 7.5 0 1 0 15 0 a7.5 7.5 0 1 0 -15 0zM573.84 670.79 a7.5 7.5 0 1 0 15 0 a7.5 7.5 0 1 0 -15 0zM508.89 708.29 a7.5 7.5 0 1 0 15 0 a7.5 7.5 0 1 0 -15 0zM443.93 670.79 a7.5 7.5 0 1 0 15 0 a7.5 7.5 0 1 0 -15 0zM443.93 895.79 a7.5 7.5 0 1 0 15 0 a7.5 7.5 0 1 0 -15 0zM508.89 933.29 a7.5 7.5 0 1 0 15 0 a7.5 7.5 0 1 0 -15 0zM508.89 1008.29 a7.5 7.5 0 1 0 15 0 a7.5 7.5 0 1 0 -15 0zM443.93 1045.79 a7.5 7.5 0 1 0 15 0 a7.5 7.5 0 1 0 -15 0zM573.84 -4.21 a7.5 7.5 0 1 0 15 0 a7.5 7.5 0 1 0 -15 0zM638.79 33.29 a7.5 7.5 0 1 0 15 0 a7.5 7.5 0 1 0 -15 0zM638.79 108.29 a7.5 7.5 0 1 0 15 0 a7.5 7.5 0 1 0 -15 0zM638.79 333.29 a7.5 7.5 0 1 0 15 0 a7.5 7.5 0 1 0 -15 0zM703.75 370.79 a7.5 7.5 0 1 0 15 0 a7.5 7.5 0 1 0 -15 0zM703.75 445.79 a7.5 7.5 0 1 0 15 0 a7.5 7.5 0 1 0 -15 0zM638.79 483.29 a7.5 7.5 0 1 0 15 0 a7.5 7.5 0 1 0 -15 0zM573.84 445.79 a7.5 7.5 0 1 0 15 0 a7.5 7.5 0 1 0 -15 0zM573.84 370.79 a7.5 7.5 0 1 0 15 0 a7.5 7.5 0 1 0 -15 0zM638.79 558.29 a7.5 7.5 0 1 0 15 0 a7.5 7.5 0 1 0 -15 0zM703.75 595.79 a7.5 7.5 0 1 0 15 0 a7.5 7.5 0 1 0 -15 0zM703.75 670.79 a7.5 7.5 0 1 0 15 0 a7.5 7.5 0 1 0 -15 0zM638.79 708.29 a7.5 7.5 0 1 0 15 0 a7.5 7.5 0 1 0 -15 0zM573.84 895.79 a7.5 7.5 0 1 0 15 0 a7.5 7.5 0 1 0 -15 0zM638.79 933.29 a7.5 7.5 0 1 0 15 0 a7.5 7.5 0 1 0 -15 0zM638.79 1008.29 a7.5 7.5 0 1 0 15 0 a7.5 7.5 0 1 0 -15 0zM573.84 1045.79 a7.5 7.5 0 1 0 15 0 a7.5 7.5 0 1 0 -15 0zM703.75 1045.79 a7.5 7.5 0 1 0 15 0 a7.5 7.5 0 1 0 -15 0zM703.75 1120.79 a7.5 7.5 0 1 0 15 0 a7.5 7.5 0 1 0 -15 0zM638.79 1158.29 a7.5 7.5 0 1 0 15 0 a7.5 7.5 0 1 0 -15 0zM573.84 1120.79 a7.5 7.5 0 1 0 15 0 a7.5 7.5 0 1 0 -15 0zM638.79 1233.29 a7.5 7.5 0 1 0 15 0 a7.5 7.5 0 1 0 -15 0zM573.84 1270.79 a7.5 7.5 0 1 0 15 0 a7.5 7.5 0 1 0 -15 0zM508.89 1233.29 a7.5 7.5 0 1 0 15 0 a7.5 7.5 0 1 0 -15 0zM508.89 1158.29 a7.5 7.5 0 1 0 15 0 a7.5 7.5 0 1 0 -15 0zM768.7 108.29 a7.5 7.5 0 1 0 15 0 a7.5 7.5 0 1 0 -15 0zM833.66 145.79 a7.5 7.5 0 1 0 15 0 a7.5 7.5 0 1 0 -15 0zM833.66 220.79 a7.5 7.5 0 1 0 15 0 a7.5 7.5 0 1 0 -15 0zM768.7 258.29 a7.5 7.5 0 1 0 15 0 a7.5 7.5 0 1 0 -15 0zM703.75 220.79 a7.5 7.5 0 1 0 15 0 a7.5 7.5 0 1 0 -15 0zM703.75 145.79 a7.5 7.5 0 1 0 15 0 a7.5 7.5 0 1 0 -15 0zM768.7 333.29 a7.5 7.5 0 1 0 15 0 a7.5 7.5 0 1 0 -15 0zM638.79 258.29 a7.5 7.5 0 1 0 15 0 a7.5 7.5 0 1 0 -15 0zM768.7 708.29 a7.5 7.5 0 1 0 15 0 a7.5 7.5 0 1 0 -15 0zM768.7 783.29 a7.5 7.5 0 1 0 15 0 a7.5 7.5 0 1 0 -15 0zM703.75 820.79 a7.5 7.5 0 1 0 15 0 a7.5 7.5 0 1 0 -15 0zM638.79 783.29 a7.5 7.5 0 1 0 15 0 a7.5 7.5 0 1 0 -15 0zM703.75 895.79 a7.5 7.5 0 1 0 15 0 a7.5 7.5 0 1 0 -15 0zM768.7 933.29 a7.5 7.5 0 1 0 15 0 a7.5 7.5 0 1 0 -15 0zM768.7 1008.29 a7.5 7.5 0 1 0 15 0 a7.5 7.5 0 1 0 -15 0zM768.7 1158.29 a7.5 7.5 0 1 0 15 0 a7.5 7.5 0 1 0 -15 0zM768.7 1233.29 a7.5 7.5 0 1 0 15 0 a7.5 7.5 0 1 0 -15 0zM703.75 1270.79 a7.5 7.5 0 1 0 15 0 a7.5 7.5 0 1 0 -15 0zM833.65 220.79 a7.5 7.5 0 1 0 15 0 a7.5 7.5 0 1 0 -15 0zM898.61 258.29 a7.5 7.5 0 1 0 15 0 a7.5 7.5 0 1 0 -15 0zM898.61 333.29 a7.5 7.5 0 1 0 15 0 a7.5 7.5 0 1 0 -15 0zM833.65 370.79 a7.5 7.5 0 1 0 15 0 a7.5 7.5 0 1 0 -15 0zM898.61 558.29 a7.5 7.5 0 1 0 15 0 a7.5 7.5 0 1 0 -15 0zM963.56 595.79 a7.5 7.5 0 1 0 15 0 a7.5 7.5 0 1 0 -15 0zM963.56 670.79 a7.5 7.5 0 1 0 15 0 a7.5 7.5 0 1 0 -15 0zM898.61 708.29 a7.5 7.5 0 1 0 15 0 a7.5 7.5 0 1 0 -15 0zM833.65 670.79 a7.5 7.5 0 1 0 15 0 a7.5 7.5 0 1 0 -15 0zM833.65 595.79 a7.5 7.5 0 1 0 15 0 a7.5 7.5 0 1 0 -15 0zM898.61 783.29 a7.5 7.5 0 1 0 15 0 a7.5 7.5 0 1 0 -15 0zM833.65 820.79 a7.5 7.5 0 1 0 15 0 a7.5 7.5 0 1 0 -15 0zM963.56 820.79 a7.5 7.5 0 1 0 15 0 a7.5 7.5 0 1 0 -15 0zM963.56 895.79 a7.5 7.5 0 1 0 15 0 a7.5 7.5 0 1 0 -15 0zM898.61 933.29 a7.5 7.5 0 1 0 15 0 a7.5 7.5 0 1 0 -15 0zM833.65 895.79 a7.5 7.5 0 1 0 15 0 a7.5 7.5 0 1 0 -15 0zM898.61 1008.29 a7.5 7.5 0 1 0 15 0 a7.5 7.5 0 1 0 -15 0zM963.56 1045.79 a7.5 7.5 0 1 0 15 0 a7.5 7.5 0 1 0 -15 0zM963.56 1120.79 a7.5 7.5 0 1 0 15 0 a7.5 7.5 0 1 0 -15 0zM898.61 1158.29 a7.5 7.5 0 1 0 15 0 a7.5 7.5 0 1 0 -15 0zM833.65 1120.79 a7.5 7.5 0 1 0 15 0 a7.5 7.5 0 1 0 -15 0zM833.65 1045.79 a7.5 7.5 0 1 0 15 0 a7.5 7.5 0 1 0 -15 0zM963.56 -4.21 a7.5 7.5 0 1 0 15 0 a7.5 7.5 0 1 0 -15 0zM1028.52 33.29 a7.5 7.5 0 1 0 15 0 a7.5 7.5 0 1 0 -15 0zM1028.52 108.29 a7.5 7.5 0 1 0 15 0 a7.5 7.5 0 1 0 -15 0zM963.56 145.79 a7.5 7.5 0 1 0 15 0 a7.5 7.5 0 1 0 -15 0zM898.61 108.29 a7.5 7.5 0 1 0 15 0 a7.5 7.5 0 1 0 -15 0zM898.61 33.29 a7.5 7.5 0 1 0 15 0 a7.5 7.5 0 1 0 -15 0zM963.56 220.79 a7.5 7.5 0 1 0 15 0 a7.5 7.5 0 1 0 -15 0zM1028.52 258.29 a7.5 7.5 0 1 0 15 0 a7.5 7.5 0 1 0 -15 0zM1028.52 333.29 a7.5 7.5 0 1 0 15 0 a7.5 7.5 0 1 0 -15 0zM963.56 370.79 a7.5 7.5 0 1 0 15 0 a7.5 7.5 0 1 0 -15 0zM1093.47 370.79 a7.5 7.5 0 1 0 15 0 a7.5 7.5 0 1 0 -15 0zM1093.47 445.79 a7.5 7.5 0 1 0 15 0 a7.5 7.5 0 1 0 -15 0zM1028.52 483.29 a7.5 7.5 0 1 0 15 0 a7.5 7.5 0 1 0 -15 0zM963.56 445.79 a7.5 7.5 0 1 0 15 0 a7.5 7.5 0 1 0 -15 0zM1028.52 708.29 a7.5 7.5 0 1 0 15 0 a7.5 7.5 0 1 0 -15 0zM1028.52 783.29 a7.5 7.5 0 1 0 15 0 a7.5 7.5 0 1 0 -15 0zM1028.52 1158.29 a7.5 7.5 0 1 0 15 0 a7.5 7.5 0 1 0 -15 0zM1028.52 1233.29 a7.5 7.5 0 1 0 15 0 a7.5 7.5 0 1 0 -15 0zM963.56 1270.79 a7.5 7.5 0 1 0 15 0 a7.5 7.5 0 1 0 -15 0zM898.61 1233.29 a7.5 7.5 0 1 0 15 0 a7.5 7.5 0 1 0 -15 0zM1158.42 108.29 a7.5 7.5 0 1 0 15 0 a7.5 7.5 0 1 0 -15 0zM1223.38 145.79 a7.5 7.5 0 1 0 15 0 a7.5 7.5 0 1 0 -15 0zM1223.38 220.79 a7.5 7.5 0 1 0 15 0 a7.5 7.5 0 1 0 -15 0zM1158.42 258.29 a7.5 7.5 0 1 0 15 0 a7.5 7.5 0 1 0 -15 0zM1093.47 220.79 a7.5 7.5 0 1 0 15 0 a7.5 7.5 0 1 0 -15 0zM1093.47 145.79 a7.5 7.5 0 1 0 15 0 a7.5 7.5 0 1 0 -15 0zM1158.42 333.29 a7.5 7.5 0 1 0 15 0 a7.5 7.5 0 1 0 -15 0zM1223.38 370.79 a7.5 7.5 0 1 0 15 0 a7.5 7.5 0 1 0 -15 0zM1223.38 445.79 a7.5 7.5 0 1 0 15 0 a7.5 7.5 0 1 0 -15 0zM1158.42 483.29 a7.5 7.5 0 1 0 15 0 a7.5 7.5 0 1 0 -15 0zM1158.42 558.29 a7.5 7.5 0 1 0 15 0 a7.5 7.5 0 1 0 -15 0zM1223.38 595.79 a7.5 7.5 0 1 0 15 0 a7.5 7.5 0 1 0 -15 0zM1223.38 670.79 a7.5 7.5 0 1 0 15 0 a7.5 7.5 0 1 0 -15 0zM1158.42 708.29 a7.5 7.5 0 1 0 15 0 a7.5 7.5 0 1 0 -15 0zM1093.47 670.79 a7.5 7.5 0 1 0 15 0 a7.5 7.5 0 1 0 -15 0zM1093.47 595.79 a7.5 7.5 0 1 0 15 0 a7.5 7.5 0 1 0 -15 0zM1158.42 783.29 a7.5 7.5 0 1 0 15 0 a7.5 7.5 0 1 0 -15 0zM1093.47 820.79 a7.5 7.5 0 1 0 15 0 a7.5 7.5 0 1 0 -15 0zM1223.38 820.79 a7.5 7.5 0 1 0 15 0 a7.5 7.5 0 1 0 -15 0zM1223.38 895.79 a7.5 7.5 0 1 0 15 0 a7.5 7.5 0 1 0 -15 0zM1158.42 933.29 a7.5 7.5 0 1 0 15 0 a7.5 7.5 0 1 0 -15 0zM1093.47 895.79 a7.5 7.5 0 1 0 15 0 a7.5 7.5 0 1 0 -15 0zM1288.33 108.29 a7.5 7.5 0 1 0 15 0 a7.5 7.5 0 1 0 -15 0zM1353.28 145.79 a7.5 7.5 0 1 0 15 0 a7.5 7.5 0 1 0 -15 0zM1353.28 220.79 a7.5 7.5 0 1 0 15 0 a7.5 7.5 0 1 0 -15 0zM1288.33 258.29 a7.5 7.5 0 1 0 15 0 a7.5 7.5 0 1 0 -15 0zM1288.33 333.29 a7.5 7.5 0 1 0 15 0 a7.5 7.5 0 1 0 -15 0zM1288.33 483.29 a7.5 7.5 0 1 0 15 0 a7.5 7.5 0 1 0 -15 0zM1288.33 558.29 a7.5 7.5 0 1 0 15 0 a7.5 7.5 0 1 0 -15 0zM1288.33 933.29 a7.5 7.5 0 1 0 15 0 a7.5 7.5 0 1 0 -15 0zM1288.33 1008.29 a7.5 7.5 0 1 0 15 0 a7.5 7.5 0 1 0 -15 0zM1223.38 1045.79 a7.5 7.5 0 1 0 15 0 a7.5 7.5 0 1 0 -15 0zM1158.42 1008.29 a7.5 7.5 0 1 0 15 0 a7.5 7.5 0 1 0 -15 0zM1223.38 1120.79 a7.5 7.5 0 1 0 15 0 a7.5 7.5 0 1 0 -15 0zM1288.33 1158.29 a7.5 7.5 0 1 0 15 0 a7.5 7.5 0 1 0 -15 0zM1288.33 1233.29 a7.5 7.5 0 1 0 15 0 a7.5 7.5 0 1 0 -15 0zM1223.38 1270.79 a7.5 7.5 0 1 0 15 0 a7.5 7.5 0 1 0 -15 0zM1158.42 1233.29 a7.5 7.5 0 1 0 15 0 a7.5 7.5 0 1 0 -15 0zM1158.42 1158.29 a7.5 7.5 0 1 0 15 0 a7.5 7.5 0 1 0 -15 0zM1353.29 220.79 a7.5 7.5 0 1 0 15 0 a7.5 7.5 0 1 0 -15 0zM1418.24 258.29 a7.5 7.5 0 1 0 15 0 a7.5 7.5 0 1 0 -15 0zM1418.24 333.29 a7.5 7.5 0 1 0 15 0 a7.5 7.5 0 1 0 -15 0zM1353.29 370.79 a7.5 7.5 0 1 0 15 0 a7.5 7.5 0 1 0 -15 0zM1353.29 445.79 a7.5 7.5 0 1 0 15 0 a7.5 7.5 0 1 0 -15 0zM1418.24 483.29 a7.5 7.5 0 1 0 15 0 a7.5 7.5 0 1 0 -15 0zM1418.24 558.29 a7.5 7.5 0 1 0 15 0 a7.5 7.5 0 1 0 -15 0zM1353.29 595.79 a7.5 7.5 0 1 0 15 0 a7.5 7.5 0 1 0 -15 0zM1483.19 595.79 a7.5 7.5 0 1 0 15 0 a7.5 7.5 0 1 0 -15 0zM1483.19 670.79 a7.5 7.5 0 1 0 15 0 a7.5 7.5 0 1 0 -15 0zM1418.24 708.29 a7.5 7.5 0 1 0 15 0 a7.5 7.5 0 1 0 -15 0zM1353.29 670.79 a7.5 7.5 0 1 0 15 0 a7.5 7.5 0 1 0 -15 0zM1418.24 783.29 a7.5 7.5 0 1 0 15 0 a7.5 7.5 0 1 0 -15 0zM1353.29 820.79 a7.5 7.5 0 1 0 15 0 a7.5 7.5 0 1 0 -15 0zM1288.33 783.29 a7.5 7.5 0 1 0 15 0 a7.5 7.5 0 1 0 -15 0zM1288.33 708.29 a7.5 7.5 0 1 0 15 0 a7.5 7.5 0 1 0 -15 0zM1483.19 -4.21 a7.5 7.5 0 1 0 15 0 a7.5 7.5 0 1 0 -15 0zM1548.15 33.29 a7.5 7.5 0 1 0 15 0 a7.5 7.5 0 1 0 -15 0zM1548.15 108.29 a7.5 7.5 0 1 0 15 0 a7.5 7.5 0 1 0 -15 0zM1483.19 145.79 a7.5 7.5 0 1 0 15 0 a7.5 7.5 0 1 0 -15 0zM1418.24 108.29 a7.5 7.5 0 1 0 15 0 a7.5 7.5 0 1 0 -15 0zM1418.24 33.29 a7.5 7.5 0 1 0 15 0 a7.5 7.5 0 1 0 -15 0zM1483.19 220.79 a7.5 7.5 0 1 0 15 0 a7.5 7.5 0 1 0 -15 0zM1548.15 258.29 a7.5 7.5 0 1 0 15 0 a7.5 7.5 0 1 0 -15 0zM1548.15 333.29 a7.5 7.5 0 1 0 15 0 a7.5 7.5 0 1 0 -15 0zM1483.19 370.79 a7.5 7.5 0 1 0 15 0 a7.5 7.5 0 1 0 -15 0zM1548.15 708.29 a7.5 7.5 0 1 0 15 0 a7.5 7.5 0 1 0 -15 0zM1548.15 783.29 a7.5 7.5 0 1 0 15 0 a7.5 7.5 0 1 0 -15 0zM1483.19 820.79 a7.5 7.5 0 1 0 15 0 a7.5 7.5 0 1 0 -15 0zM1548.15 1008.29 a7.5 7.5 0 1 0 15 0 a7.5 7.5 0 1 0 -15 0zM1613.1 1045.79 a7.5 7.5 0 1 0 15 0 a7.5 7.5 0 1 0 -15 0zM1613.1 1120.79 a7.5 7.5 0 1 0 15 0 a7.5 7.5 0 1 0 -15 0zM1548.15 1158.29 a7.5 7.5 0 1 0 15 0 a7.5 7.5 0 1 0 -15 0zM1483.19 1120.79 a7.5 7.5 0 1 0 15 0 a7.5 7.5 0 1 0 -15 0zM1483.19 1045.79 a7.5 7.5 0 1 0 15 0 a7.5 7.5 0 1 0 -15 0zM1613.1 445.79 a7.5 7.5 0 1 0 15 0 a7.5 7.5 0 1 0 -15 0zM1678.05 483.29 a7.5 7.5 0 1 0 15 0 a7.5 7.5 0 1 0 -15 0zM1678.05 558.29 a7.5 7.5 0 1 0 15 0 a7.5 7.5 0 1 0 -15 0zM1613.1 595.79 a7.5 7.5 0 1 0 15 0 a7.5 7.5 0 1 0 -15 0zM1548.15 558.29 a7.5 7.5 0 1 0 15 0 a7.5 7.5 0 1 0 -15 0zM1548.15 483.29 a7.5 7.5 0 1 0 15 0 a7.5 7.5 0 1 0 -15 0zM1743.01 595.79 a7.5 7.5 0 1 0 15 0 a7.5 7.5 0 1 0 -15 0zM1743.01 670.79 a7.5 7.5 0 1 0 15 0 a7.5 7.5 0 1 0 -15 0zM1678.05 708.29 a7.5 7.5 0 1 0 15 0 a7.5 7.5 0 1 0 -15 0zM1613.1 670.79 a7.5 7.5 0 1 0 15 0 a7.5 7.5 0 1 0 -15 0zM1678.05 783.29 a7.5 7.5 0 1 0 15 0 a7.5 7.5 0 1 0 -15 0zM1613.1 820.79 a7.5 7.5 0 1 0 15 0 a7.5 7.5 0 1 0 -15 0zM1678.05 1008.29 a7.5 7.5 0 1 0 15 0 a7.5 7.5 0 1 0 -15 0zM1743.01 1045.79 a7.5 7.5 0 1 0 15 0 a7.5 7.5 0 1 0 -15 0zM1743.01 1120.79 a7.5 7.5 0 1 0 15 0 a7.5 7.5 0 1 0 -15 0zM1678.05 1158.29 a7.5 7.5 0 1 0 15 0 a7.5 7.5 0 1 0 -15 0zM1678.05 1233.29 a7.5 7.5 0 1 0 15 0 a7.5 7.5 0 1 0 -15 0zM1613.1 1270.79 a7.5 7.5 0 1 0 15 0 a7.5 7.5 0 1 0 -15 0zM1548.15 1233.29 a7.5 7.5 0 1 0 15 0 a7.5 7.5 0 1 0 -15 0zM1743.01 -4.21 a7.5 7.5 0 1 0 15 0 a7.5 7.5 0 1 0 -15 0zM1807.96 33.29 a7.5 7.5 0 1 0 15 0 a7.5 7.5 0 1 0 -15 0zM1807.96 108.29 a7.5 7.5 0 1 0 15 0 a7.5 7.5 0 1 0 -15 0zM1743.01 145.79 a7.5 7.5 0 1 0 15 0 a7.5 7.5 0 1 0 -15 0zM1678.05 108.29 a7.5 7.5 0 1 0 15 0 a7.5 7.5 0 1 0 -15 0zM1678.05 33.29 a7.5 7.5 0 1 0 15 0 a7.5 7.5 0 1 0 -15 0zM1872.91 145.79 a7.5 7.5 0 1 0 15 0 a7.5 7.5 0 1 0 -15 0zM1872.91 220.79 a7.5 7.5 0 1 0 15 0 a7.5 7.5 0 1 0 -15 0zM1807.96 258.29 a7.5 7.5 0 1 0 15 0 a7.5 7.5 0 1 0 -15 0zM1743.01 220.79 a7.5 7.5 0 1 0 15 0 a7.5 7.5 0 1 0 -15 0zM1807.96 333.29 a7.5 7.5 0 1 0 15 0 a7.5 7.5 0 1 0 -15 0zM1872.91 370.79 a7.5 7.5 0 1 0 15 0 a7.5 7.5 0 1 0 -15 0zM1872.91 445.79 a7.5 7.5 0 1 0 15 0 a7.5 7.5 0 1 0 -15 0zM1807.96 483.29 a7.5 7.5 0 1 0 15 0 a7.5 7.5 0 1 0 -15 0zM1743.01 445.79 a7.5 7.5 0 1 0 15 0 a7.5 7.5 0 1 0 -15 0zM1743.01 370.79 a7.5 7.5 0 1 0 15 0 a7.5 7.5 0 1 0 -15 0zM1807.96 558.29 a7.5 7.5 0 1 0 15 0 a7.5 7.5 0 1 0 -15 0zM1872.91 595.79 a7.5 7.5 0 1 0 15 0 a7.5 7.5 0 1 0 -15 0zM1872.91 670.79 a7.5 7.5 0 1 0 15 0 a7.5 7.5 0 1 0 -15 0zM1807.96 708.29 a7.5 7.5 0 1 0 15 0 a7.5 7.5 0 1 0 -15 0zM1807.96 783.29 a7.5 7.5 0 1 0 15 0 a7.5 7.5 0 1 0 -15 0zM1743.01 820.79 a7.5 7.5 0 1 0 15 0 a7.5 7.5 0 1 0 -15 0zM1937.87 558.29 a7.5 7.5 0 1 0 15 0 a7.5 7.5 0 1 0 -15 0zM2002.82 595.79 a7.5 7.5 0 1 0 15 0 a7.5 7.5 0 1 0 -15 0zM2002.82 670.79 a7.5 7.5 0 1 0 15 0 a7.5 7.5 0 1 0 -15 0zM1937.87 708.29 a7.5 7.5 0 1 0 15 0 a7.5 7.5 0 1 0 -15 0zM1937.87 1008.29 a7.5 7.5 0 1 0 15 0 a7.5 7.5 0 1 0 -15 0zM2002.82 1045.79 a7.5 7.5 0 1 0 15 0 a7.5 7.5 0 1 0 -15 0zM2002.82 1120.79 a7.5 7.5 0 1 0 15 0 a7.5 7.5 0 1 0 -15 0zM1937.87 1158.29 a7.5 7.5 0 1 0 15 0 a7.5 7.5 0 1 0 -15 0zM1872.91 1120.79 a7.5 7.5 0 1 0 15 0 a7.5 7.5 0 1 0 -15 0zM1872.91 1045.79 a7.5 7.5 0 1 0 15 0 a7.5 7.5 0 1 0 -15 0zM1937.87 1233.29 a7.5 7.5 0 1 0 15 0 a7.5 7.5 0 1 0 -15 0zM1872.91 1270.79 a7.5 7.5 0 1 0 15 0 a7.5 7.5 0 1 0 -15 0zM1807.96 1233.29 a7.5 7.5 0 1 0 15 0 a7.5 7.5 0 1 0 -15 0zM1807.96 1158.29 a7.5 7.5 0 1 0 15 0 a7.5 7.5 0 1 0 -15 0z" fill="rgba(0, 0, 0, 0)"></path><path d="M61.27 36.33L104.58 61.33L104.58 111.33L61.27 136.33L17.97 111.33L17.97 61.33zM61.27 186.33L104.58 211.33L104.58 261.33L61.27 286.33L17.97 261.33L17.97 211.33zM17.97 861.33L61.27 886.33L61.27 936.33L17.97 961.33L-25.33 936.33L-25.33 886.33zM17.97 1011.33L61.27 1036.33L61.27 1086.33L17.97 1111.33L-25.33 1086.33L-25.33 1036.33zM104.58 111.33L147.88 136.33L147.88 186.33L104.58 211.33L61.27 186.33L61.27 136.33zM147.88 186.33L191.18 211.33L191.18 261.33L147.88 286.33L104.58 261.33L104.58 211.33zM147.88 336.33L191.18 361.33L191.18 411.33L147.88 436.33L104.58 411.33L104.58 361.33zM191.18 411.33L234.48 436.33L234.48 486.33L191.18 511.33L147.88 486.33L147.88 436.33zM234.48 786.33L277.78 811.33L277.78 861.33L234.48 886.33L191.18 861.33L191.18 811.33zM234.48 936.33L277.78 961.33L277.78 1011.33L234.48 1036.33L191.18 1011.33L191.18 961.33zM277.78 261.33L321.09 286.33L321.09 336.33L277.78 361.33L234.48 336.33L234.48 286.33zM321.09 636.33L364.39 661.33L364.39 711.33L321.09 736.33L277.78 711.33L277.78 661.33zM277.78 861.33L321.09 886.33L321.09 936.33L277.78 961.33L234.48 936.33L234.48 886.33zM277.78 1011.33L321.09 1036.33L321.09 1086.33L277.78 1111.33L234.48 1086.33L234.48 1036.33zM407.69 186.33L451 211.33L451 261.33L407.69 286.33L364.39 261.33L364.39 211.33zM364.39 261.33L407.69 286.33L407.69 336.33L364.39 361.33L321.09 336.33L321.09 286.33zM407.69 336.33L451 361.33L451 411.33L407.69 436.33L364.39 411.33L364.39 361.33zM407.69 936.33L451 961.33L451 1011.33L407.69 1036.33L364.39 1011.33L364.39 961.33zM364.39 1011.33L407.69 1036.33L407.69 1086.33L364.39 1111.33L321.09 1086.33L321.09 1036.33zM451 111.33L494.3 136.33L494.3 186.33L451 211.33L407.69 186.33L407.69 136.33zM451 411.33L494.3 436.33L494.3 486.33L451 511.33L407.69 486.33L407.69 436.33zM494.3 486.33L537.6 511.33L537.6 561.33L494.3 586.33L451 561.33L451 511.33zM451 711.33L494.3 736.33L494.3 786.33L451 811.33L407.69 786.33L407.69 736.33zM451 1011.33L494.3 1036.33L494.3 1086.33L451 1111.33L407.69 1086.33L407.69 1036.33zM537.6 -38.67L580.9 -13.67L580.9 36.33L537.6 61.33L494.3 36.33L494.3 -13.67zM580.9 36.33L624.21 61.33L624.21 111.33L580.9 136.33L537.6 111.33L537.6 61.33zM580.9 336.33L624.21 361.33L624.21 411.33L580.9 436.33L537.6 411.33L537.6 361.33zM537.6 411.33L580.9 436.33L580.9 486.33L537.6 511.33L494.3 486.33L494.3 436.33zM537.6 711.33L580.9 736.33L580.9 786.33L537.6 811.33L494.3 786.33L494.3 736.33zM537.6 861.33L580.9 886.33L580.9 936.33L537.6 961.33L494.3 936.33L494.3 886.33zM667.51 336.33L710.81 361.33L710.81 411.33L667.51 436.33L624.21 411.33L624.21 361.33zM624.21 411.33L667.51 436.33L667.51 486.33L624.21 511.33L580.9 486.33L580.9 436.33zM624.21 861.33L667.51 886.33L667.51 936.33L624.21 961.33L580.9 936.33L580.9 886.33zM754.11 36.33L797.42 61.33L797.42 111.33L754.11 136.33L710.81 111.33L710.81 61.33zM710.81 261.33L754.11 286.33L754.11 336.33L710.81 361.33L667.51 336.33L667.51 286.33zM710.81 411.33L754.11 436.33L754.11 486.33L710.81 511.33L667.51 486.33L667.51 436.33zM710.81 561.33L754.11 586.33L754.11 636.33L710.81 661.33L667.51 636.33L667.51 586.33zM710.81 711.33L754.11 736.33L754.11 786.33L710.81 811.33L667.51 786.33L667.51 736.33zM754.11 936.33L797.42 961.33L797.42 1011.33L754.11 1036.33L710.81 1011.33L710.81 961.33zM797.42 -38.67L840.72 -13.67L840.72 36.33L797.42 61.33L754.11 36.33L754.11 -13.67zM797.42 261.33L840.72 286.33L840.72 336.33L797.42 361.33L754.11 336.33L754.11 286.33zM840.72 336.33L884.02 361.33L884.02 411.33L840.72 436.33L797.42 411.33L797.42 361.33zM797.42 711.33L840.72 736.33L840.72 786.33L797.42 811.33L754.11 786.33L754.11 736.33zM884.02 -38.67L927.32 -13.67L927.32 36.33L884.02 61.33L840.72 36.33L840.72 -13.67zM884.02 111.33L927.32 136.33L927.32 186.33L884.02 211.33L840.72 186.33L840.72 136.33zM884.02 261.33L927.32 286.33L927.32 336.33L884.02 361.33L840.72 336.33L840.72 286.33zM927.32 636.33L970.63 661.33L970.63 711.33L927.32 736.33L884.02 711.33L884.02 661.33zM1013.93 186.33L1057.23 211.33L1057.23 261.33L1013.93 286.33L970.63 261.33L970.63 211.33zM970.63 561.33L1013.93 586.33L1013.93 636.33L970.63 661.33L927.32 636.33L927.32 586.33zM1100.53 36.33L1143.84 61.33L1143.84 111.33L1100.53 136.33L1057.23 111.33L1057.23 61.33zM1100.53 486.33L1143.84 511.33L1143.84 561.33L1100.53 586.33L1057.23 561.33L1057.23 511.33zM1057.23 561.33L1100.53 586.33L1100.53 636.33L1057.23 661.33L1013.93 636.33L1013.93 586.33zM1100.53 636.33L1143.84 661.33L1143.84 711.33L1100.53 736.33L1057.23 711.33L1057.23 661.33zM1187.14 186.33L1230.44 211.33L1230.44 261.33L1187.14 286.33L1143.84 261.33L1143.84 211.33zM1143.84 261.33L1187.14 286.33L1187.14 336.33L1143.84 361.33L1100.53 336.33L1100.53 286.33zM1187.14 336.33L1230.44 361.33L1230.44 411.33L1187.14 436.33L1143.84 411.33L1143.84 361.33zM1143.84 1011.33L1187.14 1036.33L1187.14 1086.33L1143.84 1111.33L1100.53 1086.33L1100.53 1036.33zM1230.44 -38.67L1273.74 -13.67L1273.74 36.33L1230.44 61.33L1187.14 36.33L1187.14 -13.67zM1273.74 186.33L1317.05 211.33L1317.05 261.33L1273.74 286.33L1230.44 261.33L1230.44 211.33zM1273.74 636.33L1317.05 661.33L1317.05 711.33L1273.74 736.33L1230.44 711.33L1230.44 661.33zM1230.44 711.33L1273.74 736.33L1273.74 786.33L1230.44 811.33L1187.14 786.33L1187.14 736.33zM1230.44 1011.33L1273.74 1036.33L1273.74 1086.33L1230.44 1111.33L1187.14 1086.33L1187.14 1036.33zM1360.35 186.33L1403.65 211.33L1403.65 261.33L1360.35 286.33L1317.05 261.33L1317.05 211.33zM1317.05 411.33L1360.35 436.33L1360.35 486.33L1317.05 511.33L1273.74 486.33L1273.74 436.33zM1360.35 786.33L1403.65 811.33L1403.65 861.33L1360.35 886.33L1317.05 861.33L1317.05 811.33zM1446.95 36.33L1490.26 61.33L1490.26 111.33L1446.95 136.33L1403.65 111.33L1403.65 61.33zM1403.65 261.33L1446.95 286.33L1446.95 336.33L1403.65 361.33L1360.35 336.33L1360.35 286.33zM1446.95 636.33L1490.26 661.33L1490.26 711.33L1446.95 736.33L1403.65 711.33L1403.65 661.33zM1403.65 711.33L1446.95 736.33L1446.95 786.33L1403.65 811.33L1360.35 786.33L1360.35 736.33zM1446.95 786.33L1490.26 811.33L1490.26 861.33L1446.95 886.33L1403.65 861.33L1403.65 811.33zM1446.95 936.33L1490.26 961.33L1490.26 1011.33L1446.95 1036.33L1403.65 1011.33L1403.65 961.33zM1490.26 111.33L1533.56 136.33L1533.56 186.33L1490.26 211.33L1446.95 186.33L1446.95 136.33zM1490.26 261.33L1533.56 286.33L1533.56 336.33L1490.26 361.33L1446.95 336.33L1446.95 286.33zM1533.56 786.33L1576.86 811.33L1576.86 861.33L1533.56 886.33L1490.26 861.33L1490.26 811.33zM1576.86 -38.67L1620.16 -13.67L1620.16 36.33L1576.86 61.33L1533.56 36.33L1533.56 -13.67zM1620.16 36.33L1663.47 61.33L1663.47 111.33L1620.16 136.33L1576.86 111.33L1576.86 61.33zM1576.86 261.33L1620.16 286.33L1620.16 336.33L1576.86 361.33L1533.56 336.33L1533.56 286.33zM1620.16 336.33L1663.47 361.33L1663.47 411.33L1620.16 436.33L1576.86 411.33L1576.86 361.33zM1576.86 411.33L1620.16 436.33L1620.16 486.33L1576.86 511.33L1533.56 486.33L1533.56 436.33zM1576.86 561.33L1620.16 586.33L1620.16 636.33L1576.86 661.33L1533.56 636.33L1533.56 586.33zM1663.47 111.33L1706.77 136.33L1706.77 186.33L1663.47 211.33L1620.16 186.33L1620.16 136.33zM1706.77 186.33L1750.07 211.33L1750.07 261.33L1706.77 286.33L1663.47 261.33L1663.47 211.33zM1663.47 711.33L1706.77 736.33L1706.77 786.33L1663.47 811.33L1620.16 786.33L1620.16 736.33zM1663.47 861.33L1706.77 886.33L1706.77 936.33L1663.47 961.33L1620.16 936.33L1620.16 886.33zM1750.07 -38.67L1793.37 -13.67L1793.37 36.33L1750.07 61.33L1706.77 36.33L1706.77 -13.67zM1793.37 36.33L1836.68 61.33L1836.68 111.33L1793.37 136.33L1750.07 111.33L1750.07 61.33zM1793.37 336.33L1836.68 361.33L1836.68 411.33L1793.37 436.33L1750.07 411.33L1750.07 361.33zM1793.37 486.33L1836.68 511.33L1836.68 561.33L1793.37 586.33L1750.07 561.33L1750.07 511.33zM1793.37 636.33L1836.68 661.33L1836.68 711.33L1793.37 736.33L1750.07 711.33L1750.07 661.33zM1793.37 786.33L1836.68 811.33L1836.68 861.33L1793.37 886.33L1750.07 861.33L1750.07 811.33zM1750.07 861.33L1793.37 886.33L1793.37 936.33L1750.07 961.33L1706.77 936.33L1706.77 886.33zM1750.07 1011.33L1793.37 1036.33L1793.37 1086.33L1750.07 1111.33L1706.77 1086.33L1706.77 1036.33zM1836.68 -38.67L1879.98 -13.67L1879.98 36.33L1836.68 61.33L1793.37 36.33L1793.37 -13.67zM1836.68 261.33L1879.98 286.33L1879.98 336.33L1836.68 361.33L1793.37 336.33L1793.37 286.33zM1836.68 711.33L1879.98 736.33L1879.98 786.33L1836.68 811.33L1793.37 786.33L1793.37 736.33zM1879.98 936.33L1923.28 961.33L1923.28 1011.33L1879.98 1036.33L1836.68 1011.33L1836.68 961.33zM1923.28 -38.67L1966.58 -13.67L1966.58 36.33L1923.28 61.33L1879.98 36.33L1879.98 -13.67zM1966.58 36.33L2009.89 61.33L2009.89 111.33L1966.58 136.33L1923.28 111.33L1923.28 61.33zM1923.28 111.33L1966.58 136.33L1966.58 186.33L1923.28 211.33L1879.98 186.33L1879.98 136.33zM1923.28 561.33L1966.58 586.33L1966.58 636.33L1923.28 661.33L1879.98 636.33L1879.98 586.33zM1923.28 861.33L1966.58 886.33L1966.58 936.33L1923.28 961.33L1879.98 936.33L1879.98 886.33zM1966.58 936.33L2009.89 961.33L2009.89 1011.33L1966.58 1036.33L1923.28 1011.33L1923.28 961.33zM1923.28 1011.33L1966.58 1036.33L1966.58 1086.33L1923.28 1111.33L1879.98 1086.33L1879.98 1036.33z" stroke="rgba(36, 36, 36, 1)" stroke-width="2"></path></g><defs><mask id="SvgjsMask1025"><rect width="1920" height="1080" fill="#ffffff"></rect></mask></defs></svg>