<svg width="31" height="30" viewBox="0 0 31 30" fill="none" xmlns="http://www.w3.org/2000/svg">
<path d="M10 2.5H20.5C24.5 2.5 27.75 5.75 27.75 9.75V20.25C27.75 22.1728 26.9862 24.0169 25.6265 25.3765C24.2669 26.7362 22.4228 27.5 20.5 27.5H10C6 27.5 2.75 24.25 2.75 20.25V9.75C2.75 7.82718 3.51384 5.98311 4.87348 4.62348C6.23311 3.26384 8.07718 2.5 10 2.5M9.75 5C8.55653 5 7.41193 5.47411 6.56802 6.31802C5.72411 7.16193 5.25 8.30653 5.25 9.5V20.5C5.25 22.9875 7.2625 25 9.75 25H20.75C21.9435 25 23.0881 24.5259 23.932 23.682C24.7759 22.8381 25.25 21.6935 25.25 20.5V9.5C25.25 7.0125 23.2375 5 20.75 5H9.75ZM21.8125 6.875C22.2269 6.875 22.6243 7.03962 22.9174 7.33265C23.2104 7.62567 23.375 8.0231 23.375 8.4375C23.375 8.8519 23.2104 9.24933 22.9174 9.54235C22.6243 9.83538 22.2269 10 21.8125 10C21.3981 10 21.0007 9.83538 20.7076 9.54235C20.4146 9.24933 20.25 8.8519 20.25 8.4375C20.25 8.0231 20.4146 7.62567 20.7076 7.33265C21.0007 7.03962 21.3981 6.875 21.8125 6.875ZM15.25 8.75C16.9076 8.75 18.4973 9.40848 19.6694 10.5806C20.8415 11.7527 21.5 13.3424 21.5 15C21.5 16.6576 20.8415 18.2473 19.6694 19.4194C18.4973 20.5915 16.9076 21.25 15.25 21.25C13.5924 21.25 12.0027 20.5915 10.8306 19.4194C9.65848 18.2473 9 16.6576 9 15C9 13.3424 9.65848 11.7527 10.8306 10.5806C12.0027 9.40848 13.5924 8.75 15.25 8.75M15.25 11.25C14.2554 11.25 13.3016 11.6451 12.5983 12.3483C11.8951 13.0516 11.5 14.0054 11.5 15C11.5 15.9946 11.8951 16.9484 12.5983 17.6517C13.3016 18.3549 14.2554 18.75 15.25 18.75C16.2446 18.75 17.1984 18.3549 17.9017 17.6517C18.6049 16.9484 19 15.9946 19 15C19 14.0054 18.6049 13.0516 17.9017 12.3483C17.1984 11.6451 16.2446 11.25 15.25 11.25Z" fill="white"/>
</svg>
