<svg width="31" height="30" viewBox="0 0 31 30" fill="none" xmlns="http://www.w3.org/2000/svg">
<path d="M15.25 2.41072C18.0206 2.41072 20.6777 3.51132 22.6368 5.4704C24.5958 7.42949 25.6964 10.0866 25.6964 12.8571C25.6964 17.2714 22.5947 22.0821 16.4714 27.3407C16.131 27.6332 15.6969 27.7938 15.248 27.7934C14.7992 27.7931 14.3653 27.6317 14.0254 27.3386L13.6204 26.9871C7.76823 21.8657 4.80359 17.1729 4.80359 12.8571C4.80359 10.0866 5.90419 7.42949 7.86328 5.4704C9.82236 3.51132 12.4795 2.41072 15.25 2.41072V2.41072ZM15.25 4.01786C12.9057 4.01786 10.6574 4.94914 8.9997 6.60682C7.34201 8.26451 6.41073 10.5128 6.41073 12.8571C6.41073 16.6093 9.14073 20.9325 14.6757 25.7754L15.0754 26.1214C15.124 26.1632 15.1859 26.1862 15.25 26.1862C15.3141 26.1862 15.3761 26.1632 15.4247 26.1214C21.2275 21.1371 24.0893 16.6982 24.0893 12.8571C24.0893 11.6964 23.8607 10.5469 23.4165 9.4745C22.9722 8.40206 22.3211 7.42763 21.5003 6.60682C20.6795 5.78602 19.7051 5.13492 18.6327 4.69071C17.5602 4.24649 16.4108 4.01786 15.25 4.01786V4.01786ZM15.25 8.83929C16.3156 8.83929 17.3376 9.2626 18.0911 10.0161C18.8446 10.7696 19.2679 11.7915 19.2679 12.8571C19.2679 13.9227 18.8446 14.9447 18.0911 15.6982C17.3376 16.4517 16.3156 16.875 15.25 16.875C14.1844 16.875 13.1625 16.4517 12.409 15.6982C11.6555 14.9447 11.2322 13.9227 11.2322 12.8571C11.2322 11.7915 11.6555 10.7696 12.409 10.0161C13.1625 9.2626 14.1844 8.83929 15.25 8.83929V8.83929ZM15.25 10.4464C14.6107 10.4464 13.9975 10.7004 13.5454 11.1525C13.0933 11.6046 12.8393 12.2178 12.8393 12.8571C12.8393 13.4965 13.0933 14.1097 13.5454 14.5618C13.9975 15.0139 14.6107 15.2679 15.25 15.2679C15.8894 15.2679 16.5026 15.0139 16.9546 14.5618C17.4067 14.1097 17.6607 13.4965 17.6607 12.8571C17.6607 12.2178 17.4067 11.6046 16.9546 11.1525C16.5026 10.7004 15.8894 10.4464 15.25 10.4464V10.4464Z" fill="#EB831A"/>
</svg>
