<svg width="65" height="50" viewBox="0 0 65 50" fill="none" xmlns="http://www.w3.org/2000/svg">
<g clip-path="url(#clip0_6_11)">
<path d="M11.6976 49.7515V46.4422C11.6976 45.1734 10.9253 44.3462 9.60142 44.3462C8.93961 44.3462 8.22252 44.5668 7.72604 45.2839C7.34011 44.6771 6.7886 44.3462 5.96122 44.3462C5.40946 44.3462 4.8582 44.5116 4.41675 45.1183V44.4565H3.25845V49.7515H4.41675V46.8281C4.41675 45.8907 4.91323 45.4492 5.68559 45.4492C6.45745 45.4492 6.84388 45.9457 6.84388 46.8281V49.7515H8.00217V46.8281C8.00217 45.8907 8.55343 45.4492 9.27051 45.4492C10.0429 45.4492 10.4288 45.9457 10.4288 46.8281V49.7515H11.6976V49.7515ZM28.8512 44.4565H26.976V42.857H25.8177V44.4565H24.7698V45.5043H25.8175V47.9314C25.8175 49.145 26.314 49.8618 27.6379 49.8618C28.1343 49.8618 28.6856 49.6965 29.072 49.4759L28.7409 48.4829C28.41 48.7035 28.024 48.7588 27.7482 48.7588C27.1966 48.7588 26.976 48.4279 26.976 47.8761V45.5043H28.8512V44.4565V44.4565ZM38.6693 44.346C38.0074 44.346 37.5662 44.6771 37.2904 45.1183V44.4565H36.1321V49.7515H37.2904V46.7731C37.2904 45.8907 37.6763 45.3942 38.3934 45.3942C38.614 45.3942 38.8899 45.4495 39.1105 45.5045L39.4414 44.4015C39.2208 44.3462 38.8899 44.3462 38.6693 44.3462V44.346ZM23.8321 44.8977C23.2803 44.5116 22.5082 44.3462 21.6808 44.3462C20.3572 44.3462 19.4748 45.008 19.4748 46.056C19.4748 46.9387 20.1366 47.4349 21.2949 47.6005L21.8464 47.6558C22.4532 47.7658 22.7841 47.9314 22.7841 48.2073C22.7841 48.5932 22.3429 48.8691 21.5705 48.8691C20.7984 48.8691 20.1916 48.5932 19.8054 48.3176L19.2539 49.2C19.8607 49.6412 20.6881 49.8618 21.5152 49.8618C23.0597 49.8618 23.9424 49.145 23.9424 48.152C23.9424 47.2143 23.2253 46.7178 22.122 46.5525L21.5705 46.4972C21.074 46.442 20.6881 46.3319 20.6881 46.001C20.6881 45.6148 21.074 45.3942 21.6808 45.3942C22.3429 45.3942 23.0047 45.6698 23.3356 45.8354L23.8321 44.8977V44.8977ZM54.6097 44.3462C53.9477 44.3462 53.5064 44.6771 53.2306 45.1183V44.4565H52.0723V49.7515H53.2306V46.7731C53.2306 45.8907 53.6167 45.3942 54.3336 45.3942C54.5544 45.3942 54.8303 45.4495 55.0509 45.5045L55.3818 44.4015C55.1612 44.3462 54.8303 44.3462 54.6097 44.3462V44.3462ZM39.8275 47.104C39.8275 48.7035 40.9306 49.8618 42.6406 49.8618C43.4127 49.8618 43.9642 49.6965 44.5157 49.2553L43.9642 48.3176C43.523 48.6485 43.0818 48.8138 42.5853 48.8138C41.6477 48.8138 40.9858 48.152 40.9858 47.104C40.9858 46.1113 41.6477 45.4492 42.5853 45.3942C43.0818 45.3942 43.523 45.5595 43.9642 45.8907L44.5157 44.953C43.9642 44.5116 43.4127 44.3462 42.6406 44.3462C40.9306 44.3462 39.8275 45.5045 39.8275 47.104ZM50.5281 47.104V44.4565H49.3698V45.1183C48.9836 44.6221 48.4321 44.3462 47.715 44.3462C46.2258 44.3462 45.0675 45.5045 45.0675 47.104C45.0675 48.7035 46.2258 49.8618 47.715 49.8618C48.4871 49.8618 49.0389 49.5862 49.3698 49.0897V49.7515H50.5281V47.104V47.104ZM46.2808 47.104C46.2808 46.1663 46.8876 45.3942 47.8803 45.3942C48.818 45.3942 49.4801 46.1113 49.4801 47.104C49.4801 48.0417 48.818 48.8138 47.8803 48.8138C46.8876 48.7585 46.2808 48.0417 46.2808 47.104V47.104ZM32.4366 44.3462C30.8921 44.3462 29.7889 45.4492 29.7889 47.104C29.7889 48.7588 30.8919 49.8618 32.4916 49.8618C33.2637 49.8618 34.0361 49.6412 34.6429 49.145L34.0911 48.3176C33.6499 48.6485 33.0984 48.8691 32.5469 48.8691C31.8298 48.8691 31.1127 48.5382 30.9471 47.6002H34.8635V47.1593C34.9188 45.4492 33.9258 44.3462 32.4363 44.3462H32.4366ZM32.4366 45.3389C33.1534 45.3389 33.6502 45.7804 33.7602 46.6078H31.0024C31.1127 45.8907 31.6092 45.3389 32.4366 45.3389ZM61.1733 47.104V42.3605H60.015V45.1183C59.6288 44.6221 59.0773 44.3462 58.3602 44.3462C56.871 44.3462 55.7127 45.5045 55.7127 47.104C55.7127 48.7035 56.871 49.8618 58.3602 49.8618C59.1326 49.8618 59.6841 49.5862 60.015 49.0897V49.7515H61.1733V47.104V47.104ZM56.9263 47.104C56.9263 46.1663 57.5328 45.3942 58.5258 45.3942C59.4635 45.3942 60.1253 46.1113 60.1253 47.104C60.1253 48.0417 59.4635 48.8138 58.5258 48.8138C57.5328 48.7585 56.9263 48.0417 56.9263 47.104V47.104ZM18.2059 47.104V44.4565H17.0476V45.1183C16.6615 44.6221 16.11 44.3462 15.3929 44.3462C13.9037 44.3462 12.7454 45.5045 12.7454 47.104C12.7454 48.7035 13.9037 49.8618 15.3929 49.8618C16.1652 49.8618 16.7167 49.5862 17.0476 49.0897V49.7515H18.2059V47.104V47.104ZM13.9037 47.104C13.9037 46.1663 14.5105 45.3942 15.5032 45.3942C16.4409 45.3942 17.1029 46.1113 17.1029 47.104C17.1029 48.0417 16.4409 48.8138 15.5032 48.8138C14.5105 48.7585 13.9037 48.0417 13.9037 47.104V47.104Z" fill="white"/>
<path d="M23.4459 4.24698H40.8203V35.4658H23.4459V4.24698Z" fill="#FF5F00"/>
<path d="M24.5492 19.8565C24.5492 13.5136 27.5275 7.88744 32.1054 4.24698C28.7411 1.5995 24.4941 0 19.861 0C8.88433 0 0.00418091 8.88015 0.00418091 19.8565C0.00418091 30.8327 8.88433 39.7131 19.8607 39.7131C24.4939 39.7131 28.7409 38.1136 32.1054 35.4658C27.5275 31.8807 24.5492 26.1995 24.5492 19.8565V19.8565Z" fill="#EB001B"/>
<path d="M64.262 19.8565C64.262 30.8327 55.3818 39.7131 44.4055 39.7131C39.7723 39.7131 35.5253 38.1136 32.1607 35.4658C36.7939 31.8256 39.7173 26.1995 39.7173 19.8565C39.7173 13.5136 36.7386 7.88744 32.1607 4.24698C35.5251 1.5995 39.7723 0 44.4055 0C55.3818 0 64.2622 8.93543 64.2622 19.8565H64.262Z" fill="#F79E1B"/>
</g>
<defs>
<clipPath id="clip0_6_11">
<rect width="64.33" height="50" fill="white"/>
</clipPath>
</defs>
</svg>
