<svg width="90" height="36" viewBox="0 0 90 36" fill="none" xmlns="http://www.w3.org/2000/svg">
<g clip-path="url(#clip0_6_16)">
<path d="M46.5461 11.4627C46.4947 16.4576 50.1541 19.2448 52.9106 20.9021C55.7428 22.6024 56.6941 23.6928 56.6828 25.2134C56.6617 27.5404 54.4237 28.5675 52.3295 28.6074C48.6758 28.6773 46.5513 27.3904 44.8625 26.4171L43.5462 34.0157C45.2407 34.979 48.3784 35.8191 51.632 35.856C59.2696 35.856 64.2662 31.2046 64.2933 23.9929C64.3232 14.8402 54.0321 14.3336 54.1024 10.2426C54.1267 9.00216 55.0861 7.67841 57.1884 7.34183C58.229 7.1718 61.1015 7.04168 64.3583 8.892L65.6366 1.54019C63.8851 0.753394 61.6341 -4.28106e-06 58.8315 -4.28106e-06C51.6429 -4.28106e-06 46.5868 4.71469 46.5461 11.4627M77.9192 0.633248C76.5246 0.633248 75.3494 1.63691 74.8248 3.1771L63.915 35.316H71.5469L73.0656 30.1376H82.3917L83.2727 35.316H89.9994L84.1294 0.633248H77.9192M78.9869 10.0024L81.1894 23.0261H75.1574L78.9869 10.0024M37.2928 0.633682L31.277 35.3156H38.5496L44.5626 0.632815H37.2928M26.5341 0.632815L18.9644 24.2397L15.9024 4.16776C15.5431 1.92708 14.1242 0.633248 12.5486 0.633248H0.174507L0.00119019 1.64038C2.54153 2.32048 5.4278 3.41739 7.17644 4.59108C8.24657 5.30804 8.55172 5.93479 8.90328 7.6385L14.7029 35.316H22.3882L34.171 0.633248H26.5341" fill="url(#paint0_linear_6_16)"/>
</g>
<defs>
<linearGradient id="paint0_linear_6_16" x1="41.3769" y1="36.5753" x2="42.6569" y2="-0.234114" gradientUnits="userSpaceOnUse">
<stop stop-color="#222357"/>
<stop offset="1" stop-color="#254AA5"/>
</linearGradient>
<clipPath id="clip0_6_16">
<rect width="90" height="36" fill="white"/>
</clipPath>
</defs>
</svg>
